<svg xmlns="http://www.w3.org/2000/svg" fill="none" viewBox="0 0 308 392"><path fill="#fff" d="M0 0v392h308V0H0Zm225.131 378.082h-54.728V161.045a261.992 261.992 0 0 0 4.562-4.662c3.721-3.899 9.077-9.644 15.931-17.099 11.508-12.504 27.404-29.99 47.24-51.956 21.38-23.676 42.84-47.568 55.799-62.022v137.289l-68.792 74.675v140.812h-.012Zm-69.461 0L92.234 256.363v-90.85l64.104 122.996v89.584h-.668v-.011ZM14.065 167.292 78.169 44.297v90.849L14.065 258.142v-90.85Zm78.17-122.995 64.103 122.995v90.85L92.234 135.146v-90.85Zm72.985 109.669-1.578-3.021a6.818 6.818 0 0 1 2.718.627l-1.14 2.394Zm-2.581-4.947L92.234 13.929v-.01H285.33c-46.146 51.5-107.22 119.187-122.691 135.1ZM14.065 288.509l64.104-122.996v90.736L14.065 370.376v-81.867Zm64.104-3.603v93.187H25.826l52.343-93.187Zm14.065 1.824 47.62 91.352h-47.62V286.73ZM78.17 13.918 14.065 136.925V13.918h64.104Zm161.027 364.164v-135.42l54.728-59.412v194.832h-54.728Z"/></svg>
