<svg xmlns="http://www.w3.org/2000/svg" fill="none" viewBox="0 0 61 69"><path fill="#000" d="M60.508 31.245c0 17.257-13.546 31.246-30.254 31.246C13.545 62.49 0 48.5 0 31.245S13.545 0 30.254 0c16.708 0 30.254 13.989 30.254 31.245Z"/><path fill="#fff" d="M23.297 14.32v19.763h14.946V14.32H23.297Zm10.924 19.061h-2.655V22.44c.054-.056.127-.133.221-.236.18-.196.44-.486.773-.861.559-.63 1.33-1.512 2.292-2.62 1.038-1.193 2.08-2.398 2.708-3.126v6.92l-3.338 3.765v7.1Zm-3.37 0-3.078-6.136v-4.58l3.11 6.2v4.517h-.032ZM23.98 22.754l3.11-6.2v4.58l-3.11 6.2v-4.58Zm3.793-6.2 3.11 6.2v4.58l-3.11-6.2v-4.58Zm3.541 5.529-.076-.153c.042.002.086.01.132.032l-.056.12Zm-.125-.25-3.416-6.81h9.37c-2.24 2.596-5.203 6.008-5.954 6.81Zm-7.21 7.032 3.111-6.2v4.574l-3.11 5.754v-4.128Zm3.111-.181v4.698h-2.54l2.54-4.698Zm.683.092 2.31 4.605h-2.31v-4.605Zm-.683-13.754-3.11 6.202v-6.202h3.11Zm7.814 18.36v-6.828l2.655-2.995v9.822h-2.655ZM22.97 37.983v4.243h-.75v-3.582h-1.763v3.582h-.75v-4.243h3.264ZM26.74 40.622c0 .254-.036.484-.107.692a1.543 1.543 0 0 1-.304.533c-.131.147-.29.261-.474.343a1.492 1.492 0 0 1-.61.122c-.223 0-.425-.04-.608-.122a1.375 1.375 0 0 1-.47-.343 1.59 1.59 0 0 1-.307-.533 2.058 2.058 0 0 1-.11-.692c0-.253.037-.483.11-.689.073-.206.177-.383.31-.53.133-.147.29-.26.473-.34.183-.079.383-.119.601-.119.219 0 .42.04.605.12.185.08.343.193.474.34.13.146.233.323.306.53.074.206.111.435.111.688Zm-.738 0c0-.318-.067-.57-.2-.756a.646.646 0 0 0-.556-.279.646.646 0 0 0-.557.279c-.133.185-.2.438-.2.756 0 .323.067.578.2.766a.643.643 0 0 0 .556.281.643.643 0 0 0 .557-.281c.133-.188.2-.443.2-.766ZM28.706 39.636c-.004.18-.01.366-.018.56a4.946 4.946 0 0 1-.057.573 2.84 2.84 0 0 1-.14.539 1.586 1.586 0 0 1-.264.462 1.428 1.428 0 0 1-.423.343c-.169.092-.375.15-.617.174l-.1-.618c.202-.04.359-.107.47-.199a.89.89 0 0 0 .256-.352c.047-.106.084-.227.11-.361.026-.135.046-.277.06-.426.013-.15.022-.301.026-.457.004-.155.006-.306.006-.452v-.399h2.204v3.202h-.72v-2.59h-.793ZM32.511 41.038h-.143a1.5 1.5 0 0 1-.137-.006 7.427 7.427 0 0 0-.352.603 26.47 26.47 0 0 0-.298.59h-.738a7.324 7.324 0 0 1 .726-1.322.912.912 0 0 1-.426-.346.954.954 0 0 1-.134-.512c0-.18.033-.338.099-.474a.936.936 0 0 1 .277-.344c.119-.091.262-.16.428-.208.167-.047.352-.07.554-.07a5.275 5.275 0 0 1 1.221.14v3.135h-.72v-1.188h-.357v.002Zm.357-1.475a1.844 1.844 0 0 0-.202-.022 4.07 4.07 0 0 0-.28-.009c-.44 0-.661.167-.661.502 0 .09.016.165.05.224.033.059.08.107.14.143.059.037.129.063.208.077.08.014.165.021.256.021h.489v-.937ZM37.12 42.226h-.72v-1.341h-1.174v1.341h-.72v-3.202h.72v1.25H36.4v-1.25h.72v3.202ZM38.758 40.205c.06-.016.146-.03.26-.043a3.11 3.11 0 0 1 .33-.018c.17 0 .332.02.485.061.153.041.286.105.4.193.112.088.201.2.267.337s.099.299.099.487c0 .192-.032.355-.095.49a.867.867 0 0 1-.269.33 1.167 1.167 0 0 1-.413.19c-.161.04-.339.06-.534.06a5.25 5.25 0 0 1-1.25-.147v-3.122h.72v1.182Zm.513 1.507c.186 0 .334-.04.444-.12.108-.08.163-.207.163-.383a.442.442 0 0 0-.053-.226.435.435 0 0 0-.146-.15.644.644 0 0 0-.209-.083 1.186 1.186 0 0 0-.241-.025c-.076 0-.158.003-.247.01-.09.006-.164.017-.224.033v.913a4.517 4.517 0 0 0 .513.03Zm2.56.514h-.72v-3.202h.72v3.202ZM21.374 48.054a8.069 8.069 0 0 0-.783-1.034 7.976 7.976 0 0 0-.462-.478 4.333 4.333 0 0 0-.47-.392v1.904h-.75v-4.243h.75v1.751a31.317 31.317 0 0 0 1.239-1.353l.345-.398h.9a33.594 33.594 0 0 1-.87.99c-.155.169-.31.337-.467.504-.157.168-.311.327-.462.478.167.13.336.283.51.456a9.833 9.833 0 0 1 1.409 1.816h-.889ZM23.786 44.773c.238 0 .439.03.601.092a.96.96 0 0 1 .39.256c.098.11.167.245.21.402.041.157.062.33.062.517v1.941a8.87 8.87 0 0 1-.503.09 5.025 5.025 0 0 1-.76.05c-.186 0-.357-.018-.512-.054a1.061 1.061 0 0 1-.395-.178.835.835 0 0 1-.256-.318 1.132 1.132 0 0 1-.092-.484c0-.184.034-.34.104-.466a.867.867 0 0 1 .282-.309c.12-.08.257-.136.414-.171a2.28 2.28 0 0 1 .742-.037c.087.01.18.028.28.052v-.123c0-.085-.01-.167-.03-.244a.49.49 0 0 0-.3-.343.83.83 0 0 0-.307-.05c-.167 0-.32.013-.459.038-.139.024-.252.053-.34.085l-.089-.6c.092-.032.225-.065.4-.097a3.06 3.06 0 0 1 .558-.05Zm.06 2.761c.222 0 .391-.012.506-.037v-.82a1.583 1.583 0 0 0-.664-.037.728.728 0 0 0-.22.067.4.4 0 0 0-.158.138.393.393 0 0 0-.059.224c0 .175.054.297.161.364.106.068.251.101.434.101ZM28.735 46.456c0 .245-.03.47-.092.674-.062.204-.15.38-.265.526-.115.148-.26.262-.432.343a1.358 1.358 0 0 1-.587.123 1.496 1.496 0 0 1-.708-.178v1.243h-.72v-4.23c.147-.041.327-.08.542-.117.215-.036.44-.055.68-.055.245 0 .466.04.66.117.195.077.36.188.498.333.137.145.242.321.316.527.071.206.108.438.108.694Zm-.738.013c0-.33-.073-.588-.218-.772-.145-.184-.378-.275-.7-.275-.067 0-.138.003-.21.01-.075.006-.147.019-.218.039v1.83a1.093 1.093 0 0 0 .59.184c.262 0 .453-.092.574-.276.12-.183.182-.43.182-.74ZM29.307 46.47c0-.282.04-.53.122-.742.08-.212.19-.388.325-.53.134-.14.29-.247.464-.318.175-.071.353-.107.536-.107.429 0 .763.136 1.003.41.24.274.36.682.36 1.225a4.241 4.241 0 0 1-.01.276h-2.055c.02.257.108.456.264.597.157.14.384.211.682.211a2.183 2.183 0 0 0 .823-.153l.095.606c-.04.021-.095.042-.164.065a2.26 2.26 0 0 1-.238.061 3.6 3.6 0 0 1-.29.046 2.587 2.587 0 0 1-.315.019c-.274 0-.512-.042-.714-.126a1.332 1.332 0 0 1-.793-.875 2.203 2.203 0 0 1-.095-.666Zm2.09-.332a.991.991 0 0 0-.041-.29.715.715 0 0 0-.122-.24.584.584 0 0 0-.197-.159.607.607 0 0 0-.277-.058.627.627 0 0 0-.503.233.775.775 0 0 0-.134.239 1.31 1.31 0 0 0-.065.276h1.34ZM34.101 45.464c-.004.18-.01.367-.018.56a4.967 4.967 0 0 1-.056.573c-.03.188-.077.367-.14.54a1.595 1.595 0 0 1-.265.461 1.43 1.43 0 0 1-.422.343c-.17.092-.375.15-.617.175l-.101-.618c.202-.041.36-.107.47-.2a.89.89 0 0 0 .257-.352c.047-.105.084-.226.11-.36.025-.135.045-.277.059-.426.014-.15.023-.301.027-.457.004-.155.006-.306.006-.452v-.398h2.203v3.202h-.72v-2.59H34.1ZM39.258 44.853v3.202h-.714a92.983 92.983 0 0 1 .009-1.329c.001-.196.004-.366.006-.511l.003-.322c-.12.16-.242.335-.37.527l-.378.575a20.153 20.153 0 0 0-.646 1.06h-.638v-3.202h.71c0 .236-.002.462-.004.676-.002.214-.002.41-.002.585a37.23 37.23 0 0 1-.006.76l.345-.543c.12-.185.24-.367.36-.545.122-.177.242-.346.361-.505.12-.159.235-.302.346-.428h.618ZM41.551 46.867h-.143c-.048 0-.093-.003-.137-.007a7.354 7.354 0 0 0-.352.604c-.107.206-.206.403-.298.59h-.738a7.347 7.347 0 0 1 .727-1.323.912.912 0 0 1-.426-.346.953.953 0 0 1-.134-.51c0-.18.033-.339.098-.476a.935.935 0 0 1 .277-.343c.12-.092.262-.16.429-.208.166-.047.352-.07.554-.07a5.275 5.275 0 0 1 1.22.14v3.135h-.72v-1.188l-.357.002Zm.358-1.476a1.87 1.87 0 0 0-.203-.021 4.077 4.077 0 0 0-.28-.01c-.44 0-.66.168-.66.503 0 .09.016.164.05.223a.4.4 0 0 0 .14.144c.058.037.128.062.208.076.079.015.164.022.256.022h.488v-.937Z"/><path fill="#000" d="M21.447 59.948c-.042-.026 0-.069.058-.06a60.65 60.65 0 0 0 17.498 0c.059-.009.1.034.058.06-4.103 2.541-7.106 5.639-8.75 9.026-.016.035-.098.035-.115 0-1.644-3.387-4.646-6.485-8.75-9.026Z"/></svg>