<svg xmlns="http://www.w3.org/2000/svg" fill="none" viewBox="0 0 22 21"><path stroke="#535353" stroke-linecap="round" stroke-linejoin="round" d="M8 19.75v-7.4c0-.56 0-.84.109-1.054a1 1 0 0 1 .437-.437c.214-.109.494-.109 1.054-.109h2.8c.56 0 .84 0 1.054.109a1 1 0 0 1 .437.437c.109.214.109.494.109 1.054v7.4M1 8.25l9.04-6.78c.344-.258.516-.387.705-.437a1 1 0 0 1 .51 0c.189.05.36.179.705.437L21 8.25M3 6.75v9.8c0 1.12 0 1.68.218 2.108a2 2 0 0 0 .874.874c.428.218.988.218 2.108.218h9.6c1.12 0 1.68 0 2.108-.218a2 2 0 0 0 .874-.874C19 18.23 19 17.67 19 16.55v-9.8l-6.08-4.56c-.688-.516-1.033-.775-1.41-.874a2 2 0 0 0-1.02 0c-.377.1-.721.358-1.41.874L3 6.75Z"/></svg>