<svg xmlns="http://www.w3.org/2000/svg" fill="none" viewBox="0 0 194 194"><path fill="#AAA" d="M183.149 101.957a5.162 5.162 0 0 1 .475-1.855 4.601 4.601 0 0 1 1.082-1.42 4.424 4.424 0 0 1 1.524-.878 4.768 4.768 0 0 1 1.867-.215c.666.049 1.266.21 1.802.484a4.39 4.39 0 0 1 1.393 1.093c.383.463.666.988.849 1.575.192.587.263 1.218.213 1.892a5.072 5.072 0 0 1-.442 1.767 3.714 3.714 0 0 1-1.053 1.369l-.397-.446c.409-.361.713-.773.912-1.236.207-.455.33-.945.369-1.472a4.38 4.38 0 0 0-.179-1.643 3.969 3.969 0 0 0-.748-1.358 4.019 4.019 0 0 0-1.208-.95 4.13 4.13 0 0 0-1.559-.414 4.135 4.135 0 0 0-1.604.182 4.033 4.033 0 0 0-1.334.763c-.39.345-.702.756-.937 1.234a4.374 4.374 0 0 0-.418 1.599 4.49 4.49 0 0 0 .137 1.509c.138.488.387.941.748 1.359l-.459.383a3.85 3.85 0 0 1-.853-1.509 5.07 5.07 0 0 1-.18-1.813ZM182.446 110.486l6.624 1.474-.139.622-5.938 1.968.062-.279 4.54 4.313-.13.584-6.624-1.474.13-.584 5.863 1.305-.079.115-4.292-4.111.065-.292 5.671-1.908-.008.158-5.875-1.307.13-.584ZM178.374 125.717c.23-.607.574-1.098 1.031-1.471a3.333 3.333 0 0 1 1.571-.697c.591-.091 1.199-.018 1.822.219.632.239 1.135.588 1.509 1.045.378.468.616.989.713 1.564.094.582.026 1.177-.205 1.785-.23.608-.574 1.098-1.031 1.472a3.217 3.217 0 0 1-1.571.697c-.583.094-1.19.021-1.822-.219-.624-.237-1.127-.585-1.509-1.045a3.213 3.213 0 0 1-.713-1.564c-.094-.583-.026-1.178.205-1.786Zm.547.208a2.799 2.799 0 0 0-.17 1.437c.079.475.28.899.602 1.272.322.372.746.658 1.273.858.535.203 1.042.271 1.522.202.488-.065.916-.25 1.282-.556.374-.303.654-.697.838-1.183.185-.487.238-.967.158-1.442a2.58 2.58 0 0 0-.59-1.267c-.314-.369-.738-.656-1.273-.859-.526-.199-1.034-.267-1.522-.202a2.672 2.672 0 0 0-1.294.552 2.813 2.813 0 0 0-.826 1.188ZM174.573 134.919l5.656 2.986-.257.07 1.323-2.507.517.273-2.779 5.266-.517-.273 1.322-2.506.088.251-5.657-2.985.304-.575ZM168.356 145.439c.343-.49.767-.854 1.273-1.092a3.06 3.06 0 0 1 1.625-.259c.585.07 1.168.31 1.751.717.582.408 1.003.872 1.263 1.392.262.532.37 1.073.324 1.623a3.214 3.214 0 0 1-.591 1.57c-.368.525-.817.91-1.346 1.152a3.027 3.027 0 0 1-1.676.287c-.595-.057-1.17-.279-1.724-.666-.554-.388-.959-.852-1.216-1.391a3.118 3.118 0 0 1-.315-1.681c.053-.576.264-1.126.632-1.652Zm-.071-4.206 7.626 5.337-.358.511-1.821-1.275-.909-.763-1.044-.572-3.866-2.706.372-.532Zm.573 4.51a2.806 2.806 0 0 0-.518 1.351c-.04.48.051.94.272 1.381.216.447.554.832 1.016 1.155.469.328.946.514 1.434.559.489.057.948-.018 1.379-.225a2.736 2.736 0 0 0 1.103-.941c.298-.427.467-.88.507-1.359a2.577 2.577 0 0 0-.261-1.373c-.214-.435-.555-.817-1.024-1.145-.461-.323-.937-.513-1.426-.57a2.68 2.68 0 0 0-1.39.218c-.43.206-.794.523-1.092.949ZM161.691 154.029c.461-.507.978-.856 1.552-1.049a3.266 3.266 0 0 1 1.735-.091c.582.132 1.121.422 1.614.871.5.455.846.957 1.038 1.506.192.562.231 1.124.116 1.688a3.178 3.178 0 0 1-.792 1.528c-.414.456-.89.766-1.429.933a2.99 2.99 0 0 1-1.673.042c-.57-.132-1.106-.426-1.606-.881a.375.375 0 0 1-.058-.071l-.068-.061 4.033-4.433.375.341-3.796 4.174-.008-.359c.385.362.81.597 1.276.704a2.48 2.48 0 0 0 1.352-.018 2.517 2.517 0 0 0 1.179-.756c.338-.371.551-.786.64-1.245a2.475 2.475 0 0 0-.11-1.347c-.156-.447-.432-.851-.83-1.212l-.086-.079c-.411-.373-.858-.616-1.342-.728-.483-.1-.96-.071-1.431.086-.465.163-.884.45-1.257.86-.292.32-.505.671-.641 1.052-.141.387-.18.784-.118 1.192l-.571-.009a2.833 2.833 0 0 1 .137-1.387c.163-.45.419-.867.769-1.251ZM155.296 160.665l4.182 4.839-.265-.029 2.144-1.853.383.443-4.505 3.893-.382-.443 2.144-1.853-.01.267-4.183-4.839.492-.425ZM148.756 171.39c-.699.467-1.334.676-1.904.624-.565-.043-1.044-.352-1.435-.924-.406-.594-.523-1.18-.352-1.759.171-.579.627-1.117 1.369-1.613l2.129-1.424 3.83 5.602-.537.367-1.379-2.018-1.721 1.145Zm-2.018-3.25c-.577.384-.928.792-1.053 1.223-.132.437-.039.888.279 1.353.308.451.681.689 1.119.715.438.026.949-.155 1.533-.544l1.575-1.06-1.871-2.737-1.582 1.05ZM133.858 175.179l2.62 6.26-2.638 1.104c-.687.288-1.288.38-1.801.275-.514-.104-.879-.416-1.097-.936-.214-.512-.18-.981.101-1.409.273-.424.718-.766 1.333-1.023l-.092.25c-.736.308-1.332.398-1.79.27-.458-.128-.797-.456-1.018-.984-.224-.535-.202-1.033.066-1.493.263-.448.799-.841 1.606-1.179l2.71-1.135Zm-.382.738-2.11.883c-.584.245-.987.526-1.211.845-.223.319-.246.691-.069 1.114.181.432.447.687.799.765.348.09.817.011 1.409-.237l2.206-.924-1.024-2.446Zm1.22 2.914-2.014.843c-.528.221-.894.492-1.098.812-.212.324-.236.681-.072 1.073.164.392.434.622.81.69.371.079.821.009 1.348-.212l2.015-.844-.989-2.362ZM123.907 179.197l1.775 6.55-.627.17-1.513-5.584-3.155 6.849-.552.15-1.775-6.55.628-.17 1.513 5.583 3.154-6.848.552-.15ZM108.253 182.971l.769 5.838 3.506-.462-.144-1.685a26.196 26.196 0 0 1-.096-1.43 9.368 9.368 0 0 1 .036-1.316c.044-.399.136-.73.276-.993a.858.858 0 0 1 .592-.485l.663.057a.758.758 0 0 0-.631.385c-.143.246-.236.564-.281.955a8.5 8.5 0 0 0-.038 1.303c.012.488.038.983.077 1.484l.202 2.229-4.73.623-.846-6.418.645-.085Zm5.603-2.758.295 2.243-7.591 1-.296-2.243.606-.079.221 1.675 6.367-.839-.221-1.675.619-.082ZM97.516 183.369c.685.002 1.291.152 1.819.449a3.28 3.28 0 0 1 1.23 1.227c.292.521.437 1.115.435 1.782-.003.676-.144 1.269-.423 1.78-.288.519-.68.924-1.175 1.217a3.187 3.187 0 0 1-1.665.436 3.195 3.195 0 0 1-1.65-.436 2.991 2.991 0 0 1-1.152-1.213c-.284-.513-.425-1.107-.422-1.783a.39.39 0 0 1 .013-.091v-.091l5.994.023-.002.507-5.642-.021.26-.246c-.01.528.1 1.001.333 1.418.224.425.53.756.92.992.388.244.839.367 1.35.369.502.002.954-.118 1.353-.359.391-.233.7-.561.927-.984.227-.416.341-.892.344-1.429v-.117c.002-.555-.117-1.049-.358-1.484a2.725 2.725 0 0 0-1.023-1.005 3.075 3.075 0 0 0-1.481-.356 3.103 3.103 0 0 0-1.21.229 2.39 2.39 0 0 0-.965.711l-.375-.43a2.83 2.83 0 0 1 1.121-.828c.443-.18.924-.269 1.444-.267ZM86.922 182.833c.644.085 1.2.307 1.67.666.46.358.805.815 1.038 1.37.225.554.293 1.162.206 1.823-.088.67-.312 1.24-.671 1.708a3.342 3.342 0 0 1-1.358 1.054c-.546.225-1.14.295-1.785.21-.645-.084-1.2-.306-1.67-.665a3.212 3.212 0 0 1-1.038-1.37c-.226-.545-.294-1.153-.206-1.823.087-.662.31-1.231.67-1.708.36-.477.814-.829 1.36-1.054.545-.225 1.14-.295 1.784-.211Zm-.076.58a2.82 2.82 0 0 0-1.438.165c-.444.186-.81.479-1.1.878-.288.399-.47.878-.543 1.436-.074.567-.023 1.077.153 1.528.175.461.454.834.836 1.12.38.295.829.477 1.344.544.516.068.996.009 1.44-.177a2.58 2.58 0 0 0 1.097-.865c.288-.391.469-.869.543-1.436.074-.559.023-1.068-.152-1.528a2.673 2.673 0 0 0-.834-1.133 2.818 2.818 0 0 0-1.346-.532ZM48.41 168.645a5.177 5.177 0 0 1 1.355 1.353c.336.519.56 1.07.672 1.654.111.584.105 1.17-.02 1.759a4.776 4.776 0 0 1-.764 1.717c-.38.548-.825.983-1.334 1.305a4.386 4.386 0 0 1-1.65.643 4.57 4.57 0 0 1-1.786-.07 4.906 4.906 0 0 1-1.738-.779 5.077 5.077 0 0 1-1.296-1.28 3.711 3.711 0 0 1-.644-1.602l.587-.115c.102.535.303 1.007.6 1.414a4.28 4.28 0 0 0 1.08 1.066 4.37 4.37 0 0 0 1.505.681c.52.118 1.036.134 1.55.048a4.037 4.037 0 0 0 1.431-.557c.44-.285.824-.663 1.15-1.133.327-.469.547-.96.66-1.473a4.029 4.029 0 0 0 .021-1.536 3.96 3.96 0 0 0-.585-1.435 4.373 4.373 0 0 0-1.165-1.173 4.466 4.466 0 0 0-1.368-.649 3.533 3.533 0 0 0-1.55-.048l-.097-.59a3.852 3.852 0 0 1 1.734.033 5.095 5.095 0 0 1 1.651.767ZM41.305 163.589l-4.639 4.953-.465-.436 1.327-6.113.209.195-6.024 1.715-.436-.409 4.639-4.953.437.409-4.106 4.383-.06-.126 5.724-1.604.218.204-1.243 5.854-.132-.088 4.115-4.393.436.409ZM30.337 152.415c.407.507.655 1.052.745 1.635.085.576.02 1.146-.196 1.708-.221.555-.592 1.041-1.112 1.459-.527.423-1.083.68-1.666.77a3.332 3.332 0 0 1-1.71-.178c-.55-.214-1.028-.575-1.435-1.082-.407-.507-.655-1.052-.745-1.635a3.212 3.212 0 0 1 .196-1.708c.214-.55.585-1.036 1.112-1.459.52-.418 1.076-.675 1.666-.77a3.201 3.201 0 0 1 1.71.178c.55.214 1.028.575 1.435 1.082Zm-.457.366a2.809 2.809 0 0 0-1.152-.875 2.548 2.548 0 0 0-1.401-.126c-.485.089-.947.309-1.386.662-.446.358-.761.761-.946 1.209a2.466 2.466 0 0 0-.17 1.387c.07.477.269.918.595 1.323.325.406.712.695 1.162.867.438.171.901.216 1.391.134.478-.083.94-.304 1.386-.662.439-.353.754-.756.946-1.209a2.68 2.68 0 0 0 .18-1.396 2.813 2.813 0 0 0-.605-1.314ZM24.358 144.516l-5.434 3.374.07-.257 1.495 2.407-.497.309-3.14-5.058.496-.309 1.495 2.408-.262-.052 5.434-3.374.343.552ZM18.437 133.862c.25.543.349 1.094.3 1.65a3.066 3.066 0 0 1-.6 1.533c-.356.469-.858.852-1.504 1.148-.646.296-1.26.425-1.84.386a3.049 3.049 0 0 1-1.563-.541 3.218 3.218 0 0 1-1.056-1.304c-.267-.583-.372-1.164-.313-1.744a3.03 3.03 0 0 1 .6-1.591c.35-.485.832-.868 1.446-1.15.615-.282 1.22-.397 1.815-.346a3.116 3.116 0 0 1 1.61.578c.47.338.837.798 1.105 1.381Zm3.665 2.066-8.461 3.88-.26-.567 2.02-.927 1.12-.398 1.02-.611 4.29-1.968.27.591Zm-4.18-1.787a2.822 2.822 0 0 0-.905-1.13 2.553 2.553 0 0 0-1.328-.463c-.495-.04-.999.057-1.51.292-.52.239-.923.557-1.208.954a2.465 2.465 0 0 0-.503 1.304c-.047.479.037.955.254 1.428.217.472.522.847.916 1.124.383.273.821.429 1.316.469.484.036.986-.066 1.506-.304.512-.235.916-.549 1.212-.942.293-.402.465-.838.516-1.309.039-.476-.05-.95-.267-1.423ZM14.444 123.895c.204.654.244 1.277.12 1.869a3.272 3.272 0 0 1-.798 1.543c-.409.437-.932.754-1.569.953-.645.201-1.253.246-1.824.133a3.172 3.172 0 0 1-1.515-.753 3.181 3.181 0 0 1-.918-1.456 3.191 3.191 0 0 1-.082-1.704 2.994 2.994 0 0 1 .81-1.465c.402-.425.927-.738 1.572-.94a.42.42 0 0 1 .09-.015l.087-.027 1.786 5.721-.484.151-1.681-5.386.313.175a2.746 2.746 0 0 0-1.252.745 2.475 2.475 0 0 0-.668 1.175c-.115.445-.097.911.055 1.399.15.48.4.874.75 1.182.34.303.746.499 1.219.587.464.091.953.057 1.466-.103l.111-.035c.53-.165.965-.428 1.306-.789.331-.366.548-.793.65-1.278.094-.484.059-.99-.106-1.52a3.101 3.101 0 0 0-.584-1.084 2.369 2.369 0 0 0-.969-.705l.297-.488c.436.173.811.446 1.128.819.305.368.535.8.69 1.296ZM11.957 115.024l-6.292 1.15.16-.214.509 2.788-.576.105-1.07-5.857.575-.105.51 2.788-.225-.144 6.292-1.15.117.639ZM6.03 103.971c-.047-.84.097-1.492.431-1.957.326-.464.835-.719 1.527-.764.717-.047 1.282.15 1.693.592.411.442.642 1.109.692 2l.142 2.557-6.772.445-.042-.649 2.438-.16-.11-2.064Zm3.825-.082c-.037-.692-.21-1.202-.518-1.529-.308-.336-.744-.486-1.306-.449-.545.036-.94.236-1.185.599-.246.364-.35.896-.312 1.597l.111 1.895 3.308-.217-.098-1.896ZM10.316 88.935l-6.721-.938.395-2.832c.103-.739.33-1.302.682-1.69.352-.389.807-.544 1.365-.466.549.076.936.345 1.16.805.226.452.293 1.008.2 1.669l-.167-.208c.11-.79.337-1.348.68-1.677.343-.328.798-.453 1.365-.373.575.08.992.352 1.25.817.252.455.318 1.116.197 1.983l-.406 2.91Zm-.44-.704.316-2.266c.087-.627.05-1.118-.11-1.473s-.468-.564-.923-.627c-.463-.065-.818.034-1.065.297-.254.254-.426.698-.514 1.333l-.33 2.369 2.626.367Zm-3.129-.437.302-2.163c.079-.567.033-1.02-.139-1.358-.17-.348-.465-.551-.886-.61-.42-.058-.756.057-1.006.346-.258.279-.426.701-.506 1.268l-.301 2.163 2.536.354ZM11.926 78.25l-6.543-1.8.172-.626 5.578 1.534-4.295-6.197.152-.551 6.543 1.8-.173.626-5.578-1.534 4.296 6.197-.152.552ZM16.52 63.098l-5.416-2.315-1.39 3.252 1.524.736c.431.203.858.418 1.28.645.412.224.784.458 1.113.703.321.24.56.488.714.743.159.247.197.499.115.756l-.387.542a.76.76 0 0 0-.009-.74c-.14-.247-.365-.49-.678-.728a8.5 8.5 0 0 0-1.102-.697 26.94 26.94 0 0 0-1.317-.69l-2.02-.962 1.875-4.387 5.953 2.544-.256.598Zm-.484 6.226-2.08-.89 3.009-7.04 2.08.889-.24.561-1.554-.664-2.524 5.906 1.554.664-.245.574ZM21.453 53.893c-.35.588-.787 1.034-1.31 1.337-.52.296-1.08.441-1.683.436-.597-.013-1.183-.19-1.756-.532-.58-.346-1.02-.77-1.317-1.27a3.174 3.174 0 0 1-.451-1.63c0-.575.157-1.127.472-1.655a3.19 3.19 0 0 1 1.213-1.2 2.99 2.99 0 0 1 1.631-.374c.586.015 1.169.197 1.75.542a.38.38 0 0 1 .071.058l.078.047-3.067 5.148-.435-.26 2.887-4.846.08.35a2.746 2.746 0 0 0-1.391-.435c-.48-.024-.92.072-1.321.287-.408.211-.743.536-1.005.975a2.548 2.548 0 0 0-.38 1.348c.002.455.128.888.377 1.299.242.406.594.747 1.056 1.022l.1.06c.477.284.963.432 1.46.446.493.001.955-.122 1.385-.37.423-.253.777-.617 1.06-1.094.222-.372.361-.758.418-1.158a2.38 2.38 0 0 0-.122-1.193l.562-.104c.162.44.21.901.142 1.386-.07.473-.238.933-.504 1.38ZM27.267 45.004c-.401.512-.876.877-1.423 1.098a3.339 3.339 0 0 1-1.708.197c-.591-.09-1.149-.34-1.674-.752-.532-.418-.908-.9-1.128-1.448a3.337 3.337 0 0 1-.215-1.705c.084-.584.326-1.132.728-1.643.4-.512.875-.877 1.423-1.098a3.211 3.211 0 0 1 1.707-.197c.585.084 1.143.335 1.674.752.525.412.901.895 1.129 1.447a3.21 3.21 0 0 1 .215 1.706c-.084.584-.327 1.132-.728 1.643Zm-.46-.36c.32-.41.518-.85.59-1.322.066-.477 0-.942-.195-1.393-.197-.452-.517-.851-.96-1.2-.45-.352-.914-.568-1.393-.646a2.465 2.465 0 0 0-1.39.149c-.447.178-.831.47-1.152.88-.321.409-.515.852-.58 1.329a2.58 2.58 0 0 0 .185 1.385c.19.446.51.846.96 1.2.442.347.907.563 1.392.646.49.077.957.03 1.4-.141.44-.183.822-.479 1.143-.888ZM59.184 18.721a5.166 5.166 0 0 1-1.853.485 4.603 4.603 0 0 1-1.766-.256 4.425 4.425 0 0 1-1.508-.906 4.765 4.765 0 0 1-1.095-1.528 4.668 4.668 0 0 1-.451-1.81 4.39 4.39 0 0 1 .279-1.749c.218-.56.54-1.062.964-1.506a4.9 4.9 0 0 1 1.551-1.106 5.068 5.068 0 0 1 1.76-.47 3.714 3.714 0 0 1 1.707.255l-.197.564a3.47 3.47 0 0 0-1.524-.197c-.497.04-.986.17-1.465.392a4.367 4.367 0 0 0-1.35.954c-.364.389-.639.826-.824 1.313a4.026 4.026 0 0 0-.243 1.517c.023.524.155 1.046.395 1.565.24.519.553.957.938 1.313.392.353.83.618 1.314.796a3.963 3.963 0 0 0 1.534.22 4.367 4.367 0 0 0 1.6-.411 4.47 4.47 0 0 0 1.253-.853c.36-.357.635-.795.825-1.313l.558.215a3.84 3.84 0 0 1-.905 1.479 5.067 5.067 0 0 1-1.497 1.037ZM67.216 15.1l-1.898-6.515.611-.178 4.585 4.256-.274.08 1.593-6.056.574-.168 1.898 6.515-.574.168-1.68-5.766.14.013-1.537 5.742-.287.084-4.403-4.052.142-.069 1.684 5.779-.574.167ZM82.335 11.35c-.643.092-1.239.029-1.787-.19a3.336 3.336 0 0 1-1.37-1.039c-.366-.472-.596-1.04-.69-1.7-.097-.669-.035-1.277.184-1.825a3.337 3.337 0 0 1 1.023-1.382c.464-.364 1.018-.592 1.662-.685.643-.092 1.239-.029 1.787.19.548.22 1.004.566 1.37 1.038.364.465.594 1.031.69 1.7.095.661.034 1.27-.184 1.826a3.211 3.211 0 0 1-1.023 1.382c-.465.364-1.019.592-1.662.685Zm-.083-.58a2.815 2.815 0 0 0 1.34-.546c.377-.3.651-.68.821-1.143.17-.462.215-.972.135-1.53-.081-.565-.268-1.042-.56-1.43a2.466 2.466 0 0 0-1.107-.852 2.735 2.735 0 0 0-1.441-.16c-.515.073-.961.26-1.338.56a2.58 2.58 0 0 0-.823 1.129c-.172.453-.217.963-.135 1.53.08.557.266 1.033.56 1.43.301.394.67.682 1.108.864.445.173.925.222 1.44.149ZM92.32 10.201l-.124-6.395.186.192-2.834.054-.011-.584 5.953-.115.011.585-2.833.054.178-.198.123 6.395-.65.012ZM104.307 10.499a3.216 3.216 0 0 1-1.573-.583 3.067 3.067 0 0 1-1.015-1.295c-.222-.546-.296-1.173-.222-1.88.074-.706.275-1.3.604-1.78a3.047 3.047 0 0 1 1.262-1.07 3.22 3.22 0 0 1 1.66-.245c.638.067 1.191.273 1.661.618.478.338.833.78 1.063 1.327.24.547.324 1.158.254 1.83-.071.672-.279 1.252-.626 1.738a3.124 3.124 0 0 1-1.317 1.091c-.53.233-1.113.315-1.751.249Zm-3.644 2.102.967-9.257.62.065-.231 2.21-.226 1.166.006 1.19-.49 4.694-.646-.068Zm3.666-2.688c.517.054.995-.014 1.433-.203.439-.199.797-.5 1.075-.908.286-.405.459-.888.517-1.449.06-.569-.009-1.077-.206-1.524a2.471 2.471 0 0 0-.866-1.097 2.738 2.738 0 0 0-1.359-.508 2.734 2.734 0 0 0-1.434.216c-.429.19-.787.488-1.074.894-.277.398-.445.882-.504 1.45-.059.56.006 1.069.194 1.524.196.456.484.826.864 1.11.389.276.843.44 1.36.495ZM115.334 12.175c-.666-.159-1.222-.443-1.668-.852a3.277 3.277 0 0 1-.917-1.476c-.166-.574-.172-1.185-.017-1.835.157-.657.43-1.202.818-1.635.399-.44.873-.745 1.422-.917a3.185 3.185 0 0 1 1.721-.044c.599.143 1.101.41 1.506.8.414.393.696.875.845 1.445.16.564.161 1.174.004 1.832a.359.359 0 0 1-.034.085l-.021.089-5.829-1.391.117-.493 5.488 1.31-.31.18a2.747 2.747 0 0 0 0-1.458 2.474 2.474 0 0 0-.668-1.175c-.323-.326-.733-.55-1.231-.668a2.546 2.546 0 0 0-1.399.04c-.434.138-.81.387-1.127.747-.316.353-.536.79-.661 1.313l-.027.114c-.129.54-.126 1.048.01 1.526.146.471.401.875.766 1.212.368.328.821.556 1.36.685.422.1.832.118 1.231.053.407-.063.774-.22 1.101-.472l.268.505a2.834 2.834 0 0 1-1.281.55 3.752 3.752 0 0 1-1.467-.07ZM124.246 14.55l2.224-5.997.103.246-2.657-.986.203-.548 5.583 2.07-.204.549-2.657-.986.238-.12-2.224 5.997-.609-.226ZM136.718 15.051c.745.39 1.232.846 1.461 1.371.233.517.192 1.085-.123 1.703-.326.64-.784 1.025-1.374 1.153-.59.127-1.281-.015-2.073-.428l-2.27-1.185 3.078-6.048.579.295-1.108 2.178 1.83.961Zm-1.884 3.33c.614.322 1.14.434 1.579.337.446-.094.797-.392 1.052-.894.248-.487.278-.928.091-1.325-.187-.397-.591-.758-1.213-1.084l-1.685-.873-1.504 2.955 1.68.884ZM147.174 26.194l4.228-5.308 2.237 1.782c.583.464.952.947 1.108 1.447.155.5.057.971-.294 1.412-.345.433-.773.63-1.284.59-.503-.036-1.016-.262-1.538-.678l.264-.039c.624.497.989.977 1.097 1.44.108.462-.016.917-.373 1.364-.361.454-.808.675-1.34.66-.52-.014-1.122-.294-1.807-.84l-2.298-1.83Zm.831-.02 1.789 1.425c.495.394.936.613 1.323.655.387.043.724-.116 1.01-.475.292-.366.387-.722.286-1.069-.088-.347-.384-.72-.885-1.12l-1.871-1.49-1.652 2.073Zm1.968-2.471 1.708 1.36c.447.357.861.547 1.24.572.386.03.711-.12.975-.452.265-.332.337-.68.215-1.042-.109-.364-.387-.724-.834-1.08l-1.708-1.361-1.596 2.003ZM155.516 32.96l4.868-4.729.453.467-4.15 4.03 7.52-.562.398.41-4.868 4.729-.452-.466 4.149-4.031-7.519.562-.399-.41ZM166.671 45.119l4.749-3.482-2.09-2.852-1.409.936c-.395.268-.797.526-1.207.772a9.271 9.271 0 0 1-1.172.601c-.371.154-.705.233-1.004.236a.86.86 0 0 1-.709-.286l-.269-.609a.76.76 0 0 0 .641.369c.284.006.608-.065.972-.213a8.486 8.486 0 0 0 1.161-.593c.422-.245.844-.506 1.265-.782l1.857-1.248 2.82 3.847-5.221 3.828-.384-.524Zm-5.112-3.587 1.824-1.338 4.527 6.176-1.824 1.337-.361-.493 1.363-.999-3.797-5.18-1.363 1-.369-.503ZM172.044 54.018c-.328-.6-.49-1.204-.485-1.81a3.275 3.275 0 0 1 .48-1.669c.315-.508.765-.922 1.35-1.242.593-.325 1.181-.488 1.762-.49a3.176 3.176 0 0 1 1.634.44 3.18 3.18 0 0 1 1.186 1.248c.295.54.434 1.092.416 1.655a2.994 2.994 0 0 1-.506 1.595c-.311.496-.763.907-1.357 1.23a.357.357 0 0 1-.086.033 3.841 3.841 0 0 1-.08.044l-2.875-5.258.445-.244 2.707 4.95-.342-.109a2.75 2.75 0 0 0 1.082-.976 2.507 2.507 0 0 0 .094-2.645 2.548 2.548 0 0 0-.968-1.012 2.477 2.477 0 0 0-1.309-.336c-.474.002-.946.132-1.417.39l-.103.056c-.487.266-.862.61-1.126 1.03-.252.425-.38.885-.385 1.382.002.492.137.982.403 1.468.208.38.47.697.785.949.32.26.683.427 1.089.501l-.195.537a2.835 2.835 0 0 1-1.267-.582 3.772 3.772 0 0 1-.932-1.135ZM176.618 63.285c-.238-.605-.313-1.2-.225-1.783.09-.576.322-1.1.696-1.572.376-.464.875-.819 1.496-1.062.629-.247 1.236-.327 1.819-.24a3.34 3.34 0 0 1 1.58.68c.461.368.81.855 1.047 1.46.238.605.313 1.2.225 1.783a3.2 3.2 0 0 1-.696 1.572c-.368.46-.867.815-1.496 1.062-.621.243-1.228.323-1.819.239a3.216 3.216 0 0 1-1.58-.68c-.461-.368-.81-.854-1.047-1.46Zm.544-.214c.19.484.47.877.84 1.179.378.298.811.477 1.3.537.489.06.995-.014 1.52-.22.532-.208.953-.5 1.263-.872.318-.376.51-.8.576-1.274a2.733 2.733 0 0 0-.174-1.44 2.734 2.734 0 0 0-.852-1.174 2.578 2.578 0 0 0-1.288-.541c-.481-.063-.987.01-1.52.219-.524.206-.945.497-1.263.873-.315.384-.511.81-.588 1.278-.066.473-.004.951.186 1.435Z"/></svg>