<svg xmlns="http://www.w3.org/2000/svg" fill="none" viewBox="0 0 205 204"><circle cx="102.5" cy="102" r="101.5" stroke="#AAA"/><mask id="a" fill="#fff"><path d="M203.148 118.555A102.012 102.012 0 0 0 144.676 9.128 101.999 101.999 0 0 0 101.525.005l.01.983a101.02 101.02 0 0 1 100.643 117.407l.97.16Z"/></mask><path fill="#000" d="m203.148 118.555-.487 2.96 2.96.487.487-2.96-2.96-.487ZM101.525.005l-.028-3-3 .028.028 3 3-.028Zm.01.983-3 .028.029 3 2.999-.028-.028-3Zm100.643 117.407-2.961-.487-.486 2.96 2.96.487.487-2.96Zm3.93.647a105.006 105.006 0 0 0-2.491-45.334l-5.778 1.617a99.008 99.008 0 0 1 2.348 42.743l5.921.974Zm-2.491-45.334a104.998 104.998 0 0 0-21.398-40.044l-4.555 3.905a99.002 99.002 0 0 1 20.175 37.755l5.778-1.616Zm-21.398-40.044a105 105 0 0 0-36.302-27.267l-2.481 5.463a99 99 0 0 1 34.228 25.709l4.555-3.905ZM145.917 6.397a105.002 105.002 0 0 0-44.42-9.392l.057 6a99.002 99.002 0 0 1 41.882 8.855l2.481-5.463ZM98.525.033l.01.983 6-.057-.01-.983-6 .057Zm3.038 3.955a98.016 98.016 0 0 1 41.466 8.767l2.481-5.463a104.016 104.016 0 0 0-44.004-9.304l.057 6Zm41.466 8.767a98.015 98.015 0 0 1 33.889 25.453l4.555-3.904A104.018 104.018 0 0 0 145.51 7.292l-2.481 5.463Zm33.889 25.453a98.021 98.021 0 0 1 19.974 37.381l5.778-1.616a104.018 104.018 0 0 0-21.197-39.67l-4.555 3.906Zm19.974 37.381a98.01 98.01 0 0 1 2.325 42.319l5.921.974a104.023 104.023 0 0 0-2.468-44.91l-5.778 1.617Zm4.799 45.766.97.16.974-5.921-.97-.159-.974 5.92Z" mask="url(#a)"/></svg>