<svg version="1.1" xmlns="http://www.w3.org/2000/svg">
	<symbol fill="none" viewBox="0 0 66 17" id="icon-arrow-left">
		<path stroke="currentColor" d="M66 16.5H0M.354 16.354l16-16"/>
	</symbol>
	<symbol fill="none" viewBox="0 0 66 17" id="icon-arrow-right">
		<path stroke="currentColor" d="M0 16.5h66M65.646 16.354l-16-16"/>
	</symbol>
	<symbol fill="none" viewBox="0 0 13 13" id="icon-facebook">
		<path fill="currentColor" d="M6.5 0C2.91 0 0 2.92 0 6.524a6.522 6.522 0 0 0 4.93 6.332V8.518H3.59V6.524h1.34v-.86c0-2.22 1.001-3.249 3.173-3.249.412 0 1.122.081 1.413.162v1.807a8.324 8.324 0 0 0-.75-.024c-1.067 0-1.478.405-1.478 1.459v.705H9.41l-.365 1.994H7.288V13C10.506 12.61 13 9.86 13 6.524 13 2.92 10.09 0 6.5 0Z"/>
	</symbol>
	<symbol fill="none" viewBox="0 0 13 13" id="icon-google">
		<path fill="currentColor" d="M6.633 5.318v2.517h3.57A2.995 2.995 0 0 1 8.87 9.791l2.152 1.637C12.276 10.294 13 8.628 13 6.648c0-.461-.042-.904-.12-1.33H6.632Z"/>
		<path fill="currentColor" d="m2.915 7.737-.485.364L.711 9.413A6.646 6.646 0 0 0 6.632 13c1.791 0 3.293-.58 4.39-1.572L8.87 9.791c-.591.39-1.345.627-2.238.627-1.724 0-3.19-1.14-3.714-2.677l-.003-.004Z"/>
		<path fill="currentColor" d="M.711 3.587a6.316 6.316 0 0 0 0 5.826c0 .006 2.207-1.678 2.207-1.678a3.825 3.825 0 0 1-.21-1.235c0-.432.078-.845.21-1.235L.711 3.587Z"/>
		<path fill="currentColor" d="M6.633 2.588c.976 0 1.845.331 2.538.97l1.9-1.862C9.918.644 8.422 0 6.632 0A6.635 6.635 0 0 0 .71 3.587l2.207 1.678c.525-1.537 1.99-2.677 3.715-2.677Z"/>
	</symbol>
	<symbol fill="none" viewBox="0 0 801.45 766.745" id="icon-logo">
		<path fill="currentColor" d="M507.01 442.244V283.84l63.347-69.49v227.894ZM320.618 16.281v.012l-74.2 143.862V16.28ZM336.9 335.387l55.114 106.857H336.9zm-16.282-2.139v108.996h-60.582zm-74.2 4.215 74.2-143.864v106.136l-74.2 133.497zM418.4 174.308 336.899 16.293v-.012h223.51C506.99 76.525 436.304 155.69 418.4 174.308M336.9 51.811l74.2 143.864v106.268l-74.2-143.862zm-90.482 143.862 74.2-143.862v106.27l-74.2 143.863zm163.916 246.571L336.9 299.869V193.6l74.2 143.864v104.781zm80.396 0h-63.35V188.372c1.3-1.29 3.03-3.08 5.276-5.459 4.304-4.557 10.505-11.284 18.434-19.993 13.316-14.627 31.715-35.076 54.686-60.777a28394.973 28394.973 0 0 0 64.582-72.55v160.588l-79.628 87.352zm-260.593 16.281H586.64V0H230.136Zm558.746 179.703q2.834 0 5.81-.425 2.977-.425 4.82-1.134v9.496q-1.985.992-5.67 1.559-3.685.709-7.086.709-5.953 0-11.055-1.985-4.961-2.126-8.08-7.228-3.117-5.102-3.117-14.315v-44.22h-10.772v-5.953l10.914-4.96 4.96-16.158h7.37v17.433h21.969v9.638h-21.969v43.937q0 6.945 3.26 10.346 3.402 3.26 8.646 3.26zm-44.646-68.598q2.126 0 4.535.283 2.41.142 4.394.567l-1.559 11.48q-1.842-.425-4.11-.708-2.268-.284-4.11-.284-5.811 0-10.914 3.26-5.102 3.118-8.22 8.93-2.977 5.669-2.977 13.322v40.535h-12.472v-75.968h10.205l1.417 13.89h.567q3.543-6.236 9.354-10.772 5.953-4.535 13.89-4.535zm-53.008 39.26q0 18.85-9.638 29.196-9.496 10.347-25.795 10.347-10.063 0-18-4.536-7.795-4.677-12.33-13.464-4.536-8.93-4.536-21.544 0-18.85 9.354-29.055 9.496-10.204 25.937-10.204 10.205 0 18.142 4.677 7.937 4.535 12.33 13.323 4.536 8.645 4.536 21.26zm-57.401 0q0 13.464 5.244 21.401 5.386 7.795 17.008 7.795 11.48 0 16.866-7.795 5.385-7.937 5.385-21.402 0-13.464-5.385-21.118-5.386-7.653-17.008-7.653t-16.866 7.653q-5.244 7.654-5.244 21.118zm-22.394 17.15q0 11.054-8.22 16.723-8.221 5.67-22.11 5.67-7.938 0-13.749-1.276-5.67-1.275-10.063-3.543v-11.339q4.536 2.268 10.914 4.252 6.52 1.843 13.18 1.843 9.497 0 13.749-2.977 4.252-3.118 4.252-8.22 0-2.835-1.56-5.102-1.558-2.268-5.669-4.536-3.968-2.268-11.48-5.102-7.37-2.835-12.614-5.67-5.244-2.834-8.079-6.803-2.834-3.968-2.834-10.204 0-9.638 7.795-14.882 7.937-5.244 20.693-5.244 6.945 0 12.897 1.417 6.095 1.417 11.339 3.685l-4.252 9.921q-4.819-1.984-10.063-3.401-5.244-1.418-10.772-1.418-7.653 0-11.763 2.552-3.969 2.409-3.969 6.661 0 3.26 1.843 5.386 1.842 2.126 6.094 4.252 4.394 2.126 11.622 4.819t12.33 5.527q5.103 2.835 7.796 6.945 2.693 3.969 2.693 10.063zm-99.354-56.41q9.637 0 16.724 4.252t10.772 12.047q3.826 7.653 3.826 18v7.512h-52.015q.283 12.897 6.52 19.7 6.377 6.662 17.716 6.662 7.228 0 12.756-1.276 5.669-1.417 11.622-3.968v10.913q-5.811 2.551-11.48 3.685-5.67 1.276-13.465 1.276-10.913 0-19.134-4.394-8.22-4.394-12.897-13.04-4.536-8.645-4.536-21.4 0-12.473 4.11-21.402 4.252-8.93 11.764-13.748 7.654-4.82 17.717-4.82zm-.142 10.204q-8.93 0-14.173 5.811-5.103 5.67-6.095 15.874h38.693q-.142-9.637-4.535-15.59-4.394-6.095-13.89-6.095zm-88.725-34.015q18.85 0 27.78 7.228 9.07 7.087 9.07 21.543 0 8.08-2.976 13.465-2.976 5.386-7.653 8.646-4.536 3.26-9.638 4.96l27.78 45.354h-14.882l-24.52-41.81h-20.126v41.81h-12.756V545.82Zm-.708 11.055h-14.457v37.559h15.165q12.331 0 18-4.82 5.67-4.96 5.67-14.456 0-9.921-5.953-14.031-5.953-4.252-18.425-4.252zM343.7 569.63q9.637 0 16.724 4.252t10.772 12.047q3.826 7.653 3.826 18v7.512h-52.015q.283 12.897 6.52 19.7 6.377 6.662 17.716 6.662 7.228 0 12.756-1.276 5.67-1.417 11.622-3.968v10.913q-5.811 2.551-11.48 3.685-5.67 1.276-13.465 1.276-10.913 0-19.134-4.394-8.22-4.394-12.897-13.04-4.536-8.645-4.536-21.4 0-12.473 4.11-21.402 4.252-8.93 11.764-13.748 7.654-4.82 17.717-4.82zm-.142 10.204q-8.93 0-14.173 5.811-5.103 5.67-6.095 15.874h38.693q-.142-9.637-4.535-15.59-4.394-6.095-13.89-6.095zm-59.386 58.394q2.835 0 5.811-.425t4.819-1.134v9.496q-1.984.992-5.67 1.56-3.684.708-7.086.708-5.953 0-11.055-1.985-4.96-2.126-8.079-7.228-3.118-5.102-3.118-14.315v-44.22h-10.771v-5.953l10.913-4.96 4.96-16.158h7.37v17.433h21.97v9.638h-21.97v43.937q0 6.945 3.26 10.346 3.402 3.26 8.646 3.26zm-54.85-95.67q2.834 0 4.96 1.985 2.268 1.843 2.268 5.953t-2.268 6.094q-2.126 1.843-4.96 1.843-3.118 0-5.244-1.843-2.126-1.984-2.126-6.094t2.126-5.953q2.126-1.984 5.244-1.984zm6.094 28.489v75.968h-12.472v-75.968zm-80.929-31.748v31.606q0 5.67-.709 10.63h.85q3.686-5.81 9.922-8.787 6.378-2.977 13.748-2.977 13.748 0 20.693 6.662 7.087 6.52 7.087 21.118v49.464h-12.331v-48.614q0-18.283-17.008-18.283-12.756 0-17.575 7.228-4.677 7.087-4.677 20.41v39.26h-12.472V539.298Zm-26.22 6.52-26.93 101.196H88.441l-19.701-66.33q-1.276-3.969-2.41-8.079-.992-4.252-1.842-7.37-.709-3.26-.85-4.535-.142 1.842-1.56 7.937-1.417 5.952-3.26 12.472l-19.133 65.905H26.787L0 545.82h13.323l15.732 61.795q1.7 6.52 2.835 12.614 1.275 6.095 1.984 11.48.709-5.527 2.126-12.047 1.417-6.52 3.26-12.756l17.858-61.086h13.181l18.567 61.511q1.984 6.52 3.402 13.04 1.417 6.52 2.126 11.338.566-5.244 1.842-11.338 1.417-6.236 3.118-12.898l15.59-61.653zm648.42 204.694h-4.608l10.936-15.683q-4.264-.619-6.81-3.026-2.475-2.476-2.475-7.154 0-5.365 3.439-8.047 3.439-2.683 9.01-2.683h15.27v36.593h-3.852v-15.27h-10.592zm.895-25.863q0 7.291 9.354 7.291h10.661v-14.65h-11.005q-4.54 0-6.81 1.994-2.2 1.926-2.2 5.365zm-56.746-10.73v25.519q0 1.513-.069 3.439-.069 1.857-.137 3.37l21.39-32.328h4.816v36.593h-3.715V721.486q.07-1.994.138-3.37l-21.391 32.397h-4.746V713.92zm-37.005 36.593h-3.99V717.29h-12.38q-.826 11.555-2.201 18.984-1.376 7.428-3.784 11.005-2.407 3.577-6.465 3.577-.894 0-1.582-.138-.688-.069-1.1-.138v-3.164q.618.276 2.063.276 4.196 0 6.328-8.186 2.2-8.253 3.301-25.587h19.81zm-68.92-37.28q4.677 0 7.84 2.2 3.165 2.133 4.747 5.916 1.582 3.783 1.582 8.666v2.752h-26.138q0 7.222 3.37 11.143 3.371 3.851 9.7 3.851 3.438 0 5.983-.55 2.545-.55 5.572-1.926v3.577q-2.752 1.238-5.434 1.788-2.683.55-6.26.55-8.185 0-12.587-5.02-4.402-5.022-4.402-13.688 0-5.572 1.857-9.905 1.926-4.402 5.503-6.878 3.577-2.477 8.667-2.477zm-.07 3.301q-5.02 0-8.184 3.37-3.096 3.37-3.646 9.561h21.942q0-5.778-2.476-9.354-2.408-3.577-7.635-3.577zm-56.814-3.302q7.016 0 10.937 4.746 3.99 4.678 3.99 14.032 0 9.355-4.128 14.307-4.058 4.884-11.143 4.884-4.883 0-7.84-2.064-2.89-2.063-4.265-4.952h-.275q.068 1.788.137 3.783.138 1.994.138 3.783v14.994h-3.92V713.92h3.232l.481 6.879h.207q1.375-3.027 4.333-5.297 3.026-2.27 8.116-2.27zm-.55 3.44q-6.053 0-8.942 3.851-2.889 3.783-2.957 11.006v.687q0 7.842 2.82 11.762 2.889 3.852 8.804 3.852 5.64 0 8.667-4.196 3.026-4.195 3.026-11.693 0-7.36-2.889-11.28-2.82-3.99-8.529-3.99zm-57.158-3.37q6.19 0 9.217 3.026 3.026 3.026 3.026 9.56v24.625h-2.958l-.756-6.19h-.138q-1.926 3.094-4.815 5.02-2.889 1.858-7.978 1.858-5.228 0-8.323-2.614-3.027-2.614-3.027-7.635 0-5.434 4.403-8.323 4.47-2.889 13.068-3.233l6.672-.344v-2.544q0-5.434-2.2-7.635-2.133-2.27-6.329-2.27-2.82 0-5.434.756-2.613.688-5.227 2.064l-1.238-3.164q2.545-1.307 5.64-2.132 3.095-.826 6.397-.826zm8.391 18.777-6.19.275q-7.016.275-10.455 2.407-3.44 2.064-3.44 6.26 0 3.37 2.133 5.158 2.132 1.72 5.846 1.72 5.71 0 8.805-3.233 3.164-3.233 3.301-9.08zm-48.079 18.434h-5.021l-23.868-25.037v25.037h-3.989v-49.111h3.99V725.2l23.248-23.8h4.815l-23.18 23.868zm-76.486-25.106q0-3.37 1.513-4.952 1.513-1.582 4.127-1.582t4.127 1.65q1.513 1.651 1.513 4.884 0 3.164-1.513 4.884-1.513 1.65-4.127 1.65t-4.127-1.65q-1.513-1.651-1.513-4.884zm-70.984 25.106V713.92h3.92v15.339h11.9q6.603 0 9.698 2.751 3.096 2.683 3.096 7.497 0 5.16-3.233 8.117-3.233 2.889-10.18 2.889zm34.46 0V713.92h3.92v36.593zm-30.54-3.302h10.868q9.836 0 9.836-7.566 0-7.016-9.354-7.016h-11.35zm-59.359-33.29v15.888h22.423V713.92h3.921v36.593h-3.92v-17.334h-22.424v17.334h-3.92V713.92zm-59.91 36.592h-4.608l10.937-15.683q-4.265-.619-6.81-3.026-2.476-2.476-2.476-7.154 0-5.365 3.439-8.047 3.44-2.683 9.01-2.683h15.27v36.593h-3.852v-15.27h-10.592zm.895-25.863q0 7.291 9.354 7.291h10.661v-14.65h-11.005q-4.54 0-6.81 1.994-2.2 1.926-2.2 5.365zm-34.048 25.863h-3.99V717.29h-12.38q-.825 11.555-2.201 18.984-1.376 7.428-3.783 11.005-2.407 3.577-6.466 3.577-.894 0-1.582-.138-.687-.069-1.1-.138v-3.164q.619.276 2.063.276 4.196 0 6.328-8.186 2.201-8.253 3.302-25.587h19.81Zm-54.544-18.297q0 5.71-1.926 9.974-1.857 4.265-5.572 6.672-3.645 2.339-8.941 2.339-5.09 0-8.736-2.34-3.645-2.338-5.64-6.602-1.926-4.265-1.926-10.042 0-8.942 4.402-13.963 4.471-5.022 12.175-5.022 5.227 0 8.804 2.408 3.645 2.338 5.503 6.603 1.857 4.265 1.857 9.973zm-28.683 0q0 7.016 2.958 11.35 2.958 4.264 9.286 4.264 6.396 0 9.354-4.264 3.026-4.334 3.026-11.35 0-4.54-1.238-8.047-1.238-3.508-3.92-5.503-2.683-1.994-7.016-1.994-6.26 0-9.355 4.127-3.095 4.127-3.095 11.418zm-67.476 18.297v-49.111h35.561v49.11h-3.92V704.98H17.947v45.534z"/>	<symbol viewBox="0 0 308 392" id="icon-logo--frame">
	</symbol>
	<symbol fill="none" viewBox="0 0 23 29" id="icon-logo-secondary">
		<path fill="currentColor" d="M20.907 17.891a3.635 3.635 0 0 1-3.163.5v5.071h2.607v5.213h-2.607v-2.607h-5.213v-2.606h2.607v-10.81a3.641 3.641 0 0 1-4.708-3.664 3.642 3.642 0 0 1 4.708 1.818V.523L17.744 0v16.545a3.641 3.641 0 0 1 4.708-1.819 3.641 3.641 0 0 1-1.545 3.165ZM7.32 7.36a3.641 3.641 0 0 0 4.708-3.664 3.641 3.641 0 0 0-4.708 1.818V2.091l-2.607.522v7.37A3.641 3.641 0 0 0 .004 8.164a3.641 3.641 0 0 0 4.708 3.665v11.633H2.106v5.213h2.606v-2.607h5.213v-2.606H7.32V7.36Z"/>
	</symbol>
	<symbol fill="none" viewBox="0 0 55 29" id="icon-logo-secondary--text">
		<path fill="currentColor" d="M20.907 17.891a3.635 3.635 0 0 1-3.163.5v5.071h2.607v5.213h-2.607v-2.607h-5.213v-2.606h2.607v-10.81a3.641 3.641 0 0 1-4.708-3.664 3.642 3.642 0 0 1 4.708 1.818V.523L17.744 0v16.545a3.641 3.641 0 0 1 4.708-1.819 3.641 3.641 0 0 1-1.545 3.165ZM7.32 7.36a3.641 3.641 0 0 0 4.708-3.664 3.641 3.641 0 0 0-4.708 1.818V2.091l-2.607.522v7.37A3.641 3.641 0 0 0 .004 8.164a3.641 3.641 0 0 0 4.708 3.665v11.633H2.106v5.213h2.606v-2.607h5.213v-2.606H7.32V7.36ZM49.733 15.869c-.268-.24-.697-.36-1.284-.36H46.854V16.412h1.595c.259 0 .45.06.573.178.123.12.185.282.185.489v.277a8.238 8.238 0 0 0-.626-.066 17.547 17.547 0 0 0-.682-.029c-.53-.012-.95.098-1.256.332-.307.234-.46.62-.46 1.156v.588c0 .455.153.8.46 1.034.306.233.725.35 1.256.35h2.237V16.93c0-.467-.134-.821-.403-1.061Zm-.526 3.949h-1.299c-.088 0-.178-.01-.27-.028a.753.753 0 0 1-.256-.104.586.586 0 0 1-.194-.207.675.675 0 0 1-.076-.34v-.209c0-.27.063-.46.19-.57.126-.11.328-.165.606-.165.19 0 .392.008.607.023.215.016.446.04.692.072v1.528Zm-11.416-4.31H36.196v.905h1.595c.259 0 .45.06.574.178.123.12.184.282.184.489v.277a8.23 8.23 0 0 0-.625-.066 17.547 17.547 0 0 0-.683-.029c-.53-.012-.95.098-1.256.332-.306.234-.46.62-.46 1.156v.588c0 .455.154.8.46 1.034.307.233.725.35 1.256.35h2.237V16.93c0-.467-.134-.821-.403-1.061-.268-.24-.696-.36-1.284-.36Zm.758 4.31h-1.298c-.089 0-.179-.01-.27-.028a.753.753 0 0 1-.257-.104.586.586 0 0 1-.194-.207.675.675 0 0 1-.076-.34v-.209c0-.27.063-.46.19-.57.126-.11.328-.165.607-.165.19 0 .391.008.606.023.215.016.446.04.692.072v1.528Zm-4.825-5.73h-4.206v1.219c0 .58-.024 1.118-.072 1.614-.047.495-.109.941-.184 1.339A7.868 7.868 0 0 1 29 19.292c-.098.29-.198.368-.299.526h-.53v1.714h.928v-.81h4.434l.005.81h.924v-1.714h-.74v-5.73Zm-.93 5.73h-3.106c.158-.334.286-.566.384-.988.098-.422.175-.847.232-1.275.057-.428.095-.841.114-1.238.019-.396.029-.743.029-1.04v-.285h2.348v4.826Zm11.209-4.31h.929v5.214H44.008v-.417a1.072 1.072 0 0 1-.005-.104v-1.195h-1.574c-.594 0-1.033-.13-1.317-.388-.285-.26-.427-.651-.427-1.176v-1.934h.93v1.772c0 .296.072.507.217.633.145.126.344.19.597.19h1.574v-2.595ZM37.829 6.567a1.918 1.918 0 0 0-.654-.323 2.967 2.967 0 0 0-.825-.11c-.278 0-.539.035-.782.105a1.83 1.83 0 0 0-.645.327 1.533 1.533 0 0 0-.44.578 2.067 2.067 0 0 0-.162.858v1.81c0 .26.043.492.128.697.086.206.207.38.365.522.158.142.35.252.574.332.224.079.472.118.744.118h2.093v-.428l.002-.023v-.453H36.132a.898.898 0 0 1-.621-.234c-.174-.156-.26-.38-.26-.674v-.26h2.436c.265 0 .453-.059.564-.176.11-.117.166-.287.166-.509v-.907a1.6 1.6 0 0 0-.157-.722 1.52 1.52 0 0 0-.431-.528Zm-.341 1.749c0 .075-.012.126-.034.15-.022.026-.068.038-.137.038H35.25v-.542c0-.282.098-.507.294-.674.196-.166.465-.25.806-.25.373 0 .656.084.848.25.193.167.29.392.29.674v.354Zm10.26-2.049H46.153V7.171h1.595c.259 0 .45.06.573.179.123.12.185.282.185.489v.277a8.216 8.216 0 0 0-.626-.067 17.53 17.53 0 0 0-.682-.028c-.531-.013-.95.098-1.256.332-.307.234-.46.62-.46 1.156v.588c0 .455.153.8.46 1.033.306.234.725.351 1.256.351h2.237V7.689c0-.467-.135-.821-.403-1.062-.269-.24-.697-.36-1.284-.36Zm.758 4.31h-1.299c-.089 0-.178-.01-.27-.028a.753.753 0 0 1-.256-.104.586.586 0 0 1-.194-.208.675.675 0 0 1-.076-.34V9.69c0-.27.063-.46.19-.57.126-.11.328-.165.606-.165.19 0 .392.008.607.023.215.016.445.04.692.071v1.529Zm-8.419-4.31h3.991V11.481l-.929-.004V7.17h-2.123v2.522c0 .303-.02.566-.062.79a1.28 1.28 0 0 1-.232.558 1.01 1.01 0 0 1-.479.331c-.184.065-.419.1-.703.108v.001h-.166v-.758h.068c.17 0 .299-.018.384-.052a.335.335 0 0 0 .185-.175.82.82 0 0 0 .061-.322c.004-.132.005-.296.005-.492V6.267Zm12.505 0c-.663 0-1.156.131-1.479.392-.322.262-.483.635-.483 1.12 0 .177.019.492.057.656.038.164.104.314.199.45.095.135.22.248.374.34.155.09.346.149.574.174l-1.28 2.082h1.078l1.213-1.978h1.226v1.587c0 .038.002.072.005.105v.419H55V6.267h-2.408ZM54.071 8.6h-1.663c-.45 0-.85-.213-.85-.63v-.167c0-.419.372-.63.85-.63h1.663v1.427Zm-21.599-.777a1.761 1.761 0 0 0-.654-.285 3.757 3.757 0 0 0-.825-.085h-1.902V5.751h3.026v-.904H28.17v6.634h2.813c.272 0 .532-.032.782-.095s.47-.164.663-.303c.193-.14.347-.32.46-.54.114-.222.17-.487.17-.797V9.13c0-.31-.051-.572-.155-.787a1.37 1.37 0 0 0-.432-.521Zm-.341 1.73c0 .137-.024.269-.071.395a.913.913 0 0 1-.574.55c-.145.053-.316.08-.512.08h-1.883v-2.22h1.893c.208 0 .385.028.53.084a.985.985 0 0 1 .356.226.837.837 0 0 1 .2.334c.04.128.061.262.061.4v.15ZM29.187 27.63h-.417v1.05h-.599v-2.605h.6v1.053h.43l.686-1.053h.636l-.852 1.258.878 1.346h-.685l-.677-1.049ZM34.53 26.075l-1.11 2.061a1.232 1.232 0 0 1-.384.45.854.854 0 0 1-.49.153c-.136 0-.277-.03-.423-.09l.145-.457c.104.032.19.048.26.048a.38.38 0 0 0 .2-.053.521.521 0 0 0 .165-.17l.022-.03-1.027-1.912h.644l.692 1.399.714-1.399h.591ZM37.846 26.19c.17.077.3.186.393.328a.904.904 0 0 1 .137.502.905.905 0 0 1-.137.5.879.879 0 0 1-.393.328c-.17.076-.37.113-.6.113h-.526v.718h-.602v-2.604h1.127c.231 0 .431.039.601.115Zm-.221 1.163a.408.408 0 0 0 .141-.333c0-.146-.047-.258-.141-.337-.094-.078-.232-.117-.413-.117h-.492v.904h.492c.18 0 .319-.039.413-.117ZM40.625 28.55a1.299 1.299 0 0 1-.694-1.172 1.298 1.298 0 0 1 .694-1.172c.217-.116.46-.175.731-.175.27 0 .514.059.73.175a1.303 1.303 0 0 1 .696 1.172 1.304 1.304 0 0 1-.697 1.172 1.51 1.51 0 0 1-.729.175 1.52 1.52 0 0 1-.73-.175Zm1.148-.445a.761.761 0 0 0 .292-.296.871.871 0 0 0 .106-.431.872.872 0 0 0-.106-.432.762.762 0 0 0-.292-.295.827.827 0 0 0-.417-.106.826.826 0 0 0-.416.106.762.762 0 0 0-.293.295.872.872 0 0 0-.105.432c0 .161.035.305.105.431.071.127.168.226.293.296.123.071.263.106.416.106a.827.827 0 0 0 .417-.106ZM46.277 26.19c.17.077.3.186.392.328a.903.903 0 0 1 .138.502.905.905 0 0 1-.138.5.878.878 0 0 1-.392.328 1.47 1.47 0 0 1-.601.113h-.525v.718h-.603v-2.604h1.128c.23 0 .43.039.6.115Zm-.221 1.163a.408.408 0 0 0 .14-.333c0-.146-.046-.258-.14-.337-.095-.078-.233-.117-.413-.117h-.492v.904h.491c.181 0 .319-.039.413-.117ZM50.426 26.566h-.833v2.113h-.595v-2.113h-.83v-.49h2.258v.49Z"/>
	</symbol>
	<symbol fill="none" viewBox="0 0 22 27" id="icon-phone">
		<path stroke="currentColor" stroke-linecap="round" stroke-linejoin="round" d="M15.703 25.928C5.39 22.283-.727 12.625.968 2.658 1.208 1.245 2.806.413 4.33.77l5.284 1.241c.382.09.603.443.516.792a12.328 12.328 0 0 0-.296 4.432L7.01 8.72c.726 3.668 2.835 6.998 5.956 9.405l2.824-1.487a15.401 15.401 0 0 0 4.357 1.983c.376.105.6.457.494.803l-1.462 4.792c-.422 1.383-2.011 2.228-3.476 1.71Z"/>
	</symbol>
	<symbol fill="none" viewBox="0 0 22 25" id="icon-play">
		<path stroke="currentColor" stroke-width="1" d="m1.847 2.605 17.386 10.037L1.847 22.68V2.605Z"/>
	</symbol>
	<symbol fill="none" viewBox="0 0 31 30" id="icon-route">
		<path stroke="currentColor" d="m1.17 9.384 28.126-7.685-12.902 26.147-4.926-11.27-.057-.13-.117-.081L1.169 9.384Z"/>
	</symbol>
	<symbol fill="none" viewBox="0 0 13 13" id="icon-tg">
		<path fill="currentColor" fill-rule="evenodd" d="M13 6.5a6.5 6.5 0 1 1-13 0 6.5 6.5 0 0 1 13 0ZM6.733 4.799c-.632.263-1.896.807-3.79 1.632-.308.123-.47.242-.484.36-.025.197.223.275.56.381l.142.046c.332.107.778.234 1.01.239.211.004.446-.083.705-.26C6.646 6 7.561 5.396 7.618 5.383c.04-.01.097-.02.135.013.038.034.034.098.03.115-.025.105-.997 1.009-1.5 1.476a17.732 17.732 0 0 0-.444.424c-.308.298-.54.52.013.885.265.175.478.32.69.463.231.158.462.315.76.511.077.05.15.102.22.152.27.192.511.365.81.337.174-.016.353-.18.444-.666.216-1.151.64-3.646.737-4.673a1.146 1.146 0 0 0-.011-.256.274.274 0 0 0-.093-.176.427.427 0 0 0-.251-.076c-.245.004-.62.135-2.425.886Z" clip-rule="evenodd"/>
	</symbol>
	<symbol fill="none" viewBox="0 0 13 13" id="icon-vk">
		<path fill="currentColor" fill-rule="evenodd" d="M.914.914C0 1.828 0 3.298 0 6.24v.52c0 2.942 0 4.412.914 5.326C1.828 13 3.298 13 6.24 13h.52c2.942 0 4.412 0 5.326-.914C13 11.172 13 9.702 13 6.76v-.52c0-2.942 0-4.412-.914-5.326C11.172 0 9.702 0 6.76 0h-.52C3.298 0 1.828 0 .914.914Zm1.28 3.04c.07 3.38 1.76 5.411 4.723 5.411h.168V7.432c1.089.108 1.912.904 2.243 1.933h1.538c-.423-1.538-1.533-2.388-2.226-2.713.693-.401 1.668-1.376 1.9-2.698H9.144c-.303 1.073-1.202 2.048-2.058 2.14v-2.14H5.688v3.749c-.867-.217-1.961-1.268-2.01-3.749H2.194Z" clip-rule="evenodd"/>
	</symbol>
	<symbol fill="none" viewBox="0 0 13 13" id="icon-whatsapp">
		<path fill="currentColor" d="m0 13 .918-3.338A6.405 6.405 0 0 1 .054 6.44C.056 2.89 2.96 0 6.527 0c1.731 0 3.357.672 4.579 1.89A6.39 6.39 0 0 1 13 6.446c-.002 3.552-2.905 6.441-6.473 6.441a6.5 6.5 0 0 1-3.095-.784L0 13Zm3.59-2.062c.913.539 1.783.862 2.935.862 2.965 0 5.38-2.402 5.382-5.354.001-2.959-2.403-5.357-5.378-5.358-2.967 0-5.38 2.401-5.382 5.353 0 1.206.355 2.108.95 3.052l-.543 1.976 2.036-.531Zm6.198-2.96c-.04-.067-.148-.107-.31-.188-.162-.08-.957-.47-1.106-.524-.148-.053-.256-.08-.364.081-.108.161-.418.524-.512.631-.094.107-.189.121-.35.04-.162-.08-.684-.25-1.301-.799a4.849 4.849 0 0 1-.9-1.115c-.094-.16-.01-.248.07-.328.074-.072.162-.188.244-.282.082-.094.108-.16.163-.269.054-.107.027-.201-.014-.282-.04-.08-.364-.872-.498-1.195-.132-.313-.265-.271-.364-.276l-.31-.005a.594.594 0 0 0-.432.201c-.148.162-.566.55-.566 1.343 0 .792.58 1.558.66 1.665.082.107 1.14 1.733 2.763 2.43.386.166.687.265.922.34.388.122.74.105 1.019.063.31-.046.957-.389 1.092-.765.135-.376.135-.699.094-.766Z"/>
	</symbol>
</svg>
