<svg version="1.1" xmlns="http://www.w3.org/2000/svg">
	<symbol fill="none" viewBox="0 0 13 13" id="icon-facebook">
		<path fill="currentColor" d="M6.5 0C2.91 0 0 2.92 0 6.524a6.522 6.522 0 0 0 4.93 6.332V8.518H3.59V6.524h1.34v-.86c0-2.22 1.001-3.249 3.173-3.249.412 0 1.122.081 1.413.162v1.807a8.324 8.324 0 0 0-.75-.024c-1.067 0-1.478.405-1.478 1.459v.705H9.41l-.365 1.994H7.288V13C10.506 12.61 13 9.86 13 6.524 13 2.92 10.09 0 6.5 0Z"/>
	</symbol>
	<symbol fill="none" viewBox="0 0 13 13" id="icon-google">
		<path fill="currentColor" d="M6.633 5.318v2.517h3.57A2.995 2.995 0 0 1 8.87 9.791l2.152 1.637C12.276 10.294 13 8.628 13 6.648c0-.461-.042-.904-.12-1.33H6.632Z"/>
		<path fill="currentColor" d="m2.915 7.737-.485.364L.711 9.413A6.646 6.646 0 0 0 6.632 13c1.791 0 3.293-.58 4.39-1.572L8.87 9.791c-.591.39-1.345.627-2.238.627-1.724 0-3.19-1.14-3.714-2.677l-.003-.004Z"/>
		<path fill="currentColor" d="M.711 3.587a6.316 6.316 0 0 0 0 5.826c0 .006 2.207-1.678 2.207-1.678a3.825 3.825 0 0 1-.21-1.235c0-.432.078-.845.21-1.235L.711 3.587Z"/>
		<path fill="currentColor" d="M6.633 2.588c.976 0 1.845.331 2.538.97l1.9-1.862C9.918.644 8.422 0 6.632 0A6.635 6.635 0 0 0 .71 3.587l2.207 1.678c.525-1.537 1.99-2.677 3.715-2.677Z"/>
	</symbol>
	<symbol fill="none" viewBox="0 0 68 97" id="icon-logo">
		<path fill="currentColor" d="M12.579 0v54.855h42.845V0H12.58Zm31.318 52.908h-7.614V22.536c.156-.155.364-.368.635-.652a188.19 188.19 0 0 0 2.216-2.393c1.601-1.75 3.812-4.197 6.572-7.27 2.974-3.314 5.959-6.657 7.762-8.68v19.212l-9.57 10.45v19.705h-.002Zm-9.663 0-8.825-17.033V23.162l8.918 17.211V52.91h-.093v-.002ZM14.535 23.41 23.453 6.2v12.713l-8.917 17.212V23.41ZM25.41 6.2l8.917 17.211v12.714L25.41 18.912V6.2Zm10.152 15.347-.22-.423c.121.003.25.027.379.088l-.159.335Zm-.359-.693L25.41 1.95v-.001h26.862c-6.42 7.207-14.916 16.679-17.068 18.905Zm-20.668 19.52 8.918-17.211v12.697l-8.917 15.97V40.374Zm8.918-.504v13.04h-7.281l7.281-13.04Zm1.957.255 6.624 12.784H25.41V40.124ZM23.453 1.948 14.536 19.16V1.948h8.917Zm22.4 50.96v-18.95l7.613-8.314v27.264h-7.613ZM11.645 65.677v11.779H9.493v-9.943H4.439v9.943h-2.15V65.677h9.356ZM22.451 73.004c0 .703-.102 1.343-.307 1.92a4.246 4.246 0 0 1-.872 1.479 3.905 3.905 0 0 1-1.357.952 4.4 4.4 0 0 1-1.75.34 4.343 4.343 0 0 1-1.742-.34 3.935 3.935 0 0 1-1.35-.952 4.388 4.388 0 0 1-.879-1.479c-.212-.577-.316-1.217-.316-1.92 0-.702.106-1.34.316-1.913.21-.573.506-1.062.888-1.47a3.903 3.903 0 0 1 1.357-.944 4.405 4.405 0 0 1 1.724-.331c.627 0 1.204.11 1.734.331.529.222.982.536 1.357.943.375.409.668.898.88 1.471.212.573.317 1.21.317 1.913Zm-2.117 0c0-.884-.19-1.584-.572-2.1-.38-.515-.913-.773-1.596-.773-.682 0-1.214.258-1.596.773-.38.516-.572 1.216-.572 2.1 0 .894.191 1.603.572 2.124.382.522.914.782 1.596.782.683 0 1.215-.26 1.596-.782.382-.521.572-1.23.572-2.124ZM28.085 70.266c-.01.5-.029 1.018-.051 1.556a13.303 13.303 0 0 1-.162 1.588 7.673 7.673 0 0 1-.4 1.497 4.364 4.364 0 0 1-.76 1.282c-.324.38-.73.697-1.211.952-.484.256-1.074.417-1.768.485l-.29-1.716c.58-.113 1.03-.297 1.35-.552.318-.255.563-.58.733-.978.137-.295.242-.628.316-1.003.074-.373.131-.767.17-1.182.04-.413.066-.836.077-1.267.01-.43.017-.85.017-1.257v-1.105h6.317v8.888h-2.066v-7.19h-2.272v.002ZM38.995 74.159h-.41c-.137 0-.268-.007-.393-.018-.364.544-.7 1.102-1.008 1.674a73.57 73.57 0 0 0-.854 1.64h-2.117c.308-.702.65-1.377 1.024-2.023.375-.646.728-1.195 1.058-1.65-.558-.237-.965-.558-1.221-.96-.257-.402-.385-.876-.385-1.42 0-.497.095-.938.282-1.317.188-.38.452-.697.795-.953a3.631 3.631 0 0 1 1.229-.577 6.01 6.01 0 0 1 1.588-.196c.671 0 1.324.04 1.955.12.631.08 1.147.17 1.545.27v8.702h-2.066v-3.297h-1.022v.005Zm1.024-4.097a5.46 5.46 0 0 0-.58-.058 11.985 11.985 0 0 0-.803-.026c-1.263 0-1.896.464-1.896 1.394 0 .249.048.456.144.62.096.165.231.299.401.4.17.102.37.172.598.212.227.04.472.059.734.059h1.4v-2.6h.002ZM52.208 77.456h-2.066v-3.723H46.78v3.723h-2.066v-8.888h2.066v3.468h3.363v-3.468h2.066v8.888ZM56.904 71.847c.171-.044.418-.084.743-.12.324-.033.641-.05.947-.05.489 0 .954.057 1.391.17.438.114.819.292 1.144.536.324.244.58.555.77.935.187.38.281.83.281 1.351 0 .533-.091.986-.272 1.36-.183.372-.44.679-.77.916a3.4 3.4 0 0 1-1.185.527 6.42 6.42 0 0 1-1.529.169c-.649 0-1.26-.034-1.836-.102a15.854 15.854 0 0 1-1.75-.306v-8.669h2.066v3.283Zm1.469 4.181c.535 0 .958-.11 1.272-.332.313-.221.47-.574.47-1.062 0-.249-.052-.46-.154-.629a1.226 1.226 0 0 0-.418-.416 1.877 1.877 0 0 0-.598-.23 3.487 3.487 0 0 0-.692-.068c-.217 0-.452.008-.709.025-.256.018-.469.048-.64.094v2.534c.147.022.363.043.649.059.285.017.557.025.82.025Zm7.34 1.428h-2.065v-8.888h2.066v8.888ZM7.068 93.637a23.316 23.316 0 0 0-2.245-2.873A22.535 22.535 0 0 0 3.5 89.438c-.455-.419-.906-.781-1.35-1.087v5.286H0V81.858h2.152v4.86a87.877 87.877 0 0 0 3.551-3.756c.364-.408.694-.775.99-1.104h2.579a94.61 94.61 0 0 1-2.494 2.746c-.444.47-.89.938-1.34 1.402-.45.464-.89.906-1.323 1.325.478.362.965.785 1.46 1.267.495.482.982.997 1.46 1.547a27.351 27.351 0 0 1 2.578 3.494H7.068v-.002ZM13.983 84.527c.682 0 1.258.084 1.724.255.466.17.84.408 1.118.713.28.306.478.678.598 1.114.12.437.18.915.18 1.435v5.389c-.32.068-.8.15-1.443.247a14.88 14.88 0 0 1-2.176.143 6.548 6.548 0 0 1-1.468-.153 3.088 3.088 0 0 1-1.134-.493 2.334 2.334 0 0 1-.734-.883c-.176-.362-.264-.81-.264-1.343 0-.51.099-.942.298-1.293.198-.35.47-.638.81-.858.342-.22.737-.38 1.186-.475.449-.096.92-.145 1.409-.145.227 0 .466.014.718.043.251.028.517.076.802.143v-.34c0-.237-.028-.464-.084-.679a1.41 1.41 0 0 0-.299-.57 1.402 1.402 0 0 0-.564-.382c-.234-.091-.527-.136-.88-.136a7.76 7.76 0 0 0-1.313.102 5.645 5.645 0 0 0-.973.238l-.256-1.665c.26-.091.642-.182 1.144-.272a9.059 9.059 0 0 1 1.6-.135Zm.171 7.665c.638 0 1.122-.034 1.452-.103v-2.277a4.694 4.694 0 0 0-1.211-.153c-.228 0-.459.017-.693.05a2.129 2.129 0 0 0-.631.187c-.188.091-.34.219-.452.383-.114.164-.17.372-.17.62 0 .489.154.825.462 1.012.304.188.719.28 1.243.28ZM28.17 89.2c0 .68-.088 1.304-.264 1.87a4.34 4.34 0 0 1-.76 1.461c-.33.409-.743.726-1.237.953-.495.226-1.056.34-1.682.34-.422 0-.808-.052-1.16-.154a4.361 4.361 0 0 1-.87-.34v3.45H20.13V85.038c.421-.113.939-.22 1.554-.322a11.885 11.885 0 0 1 1.947-.153c.705 0 1.338.109 1.896.322a3.959 3.959 0 0 1 1.426.927c.392.402.694.89.905 1.461a5.69 5.69 0 0 1 .311 1.929Zm-2.117.036c0-.917-.208-1.632-.623-2.142-.415-.51-1.083-.765-2.006-.765-.194 0-.396.008-.606.026a3.446 3.446 0 0 0-.623.11v5.082c.182.125.423.241.726.348.3.108.623.161.964.161.752 0 1.301-.255 1.648-.766.346-.509.52-1.194.52-2.054ZM29.81 89.236c0-.782.117-1.468.35-2.056a4.315 4.315 0 0 1 .93-1.471c.386-.391.83-.686 1.332-.884a4.153 4.153 0 0 1 1.537-.298c1.228 0 2.187.38 2.876 1.139.689.76 1.033 1.892 1.033 3.399 0 .113-.003.24-.008.383a7.29 7.29 0 0 1-.025.383h-5.89c.057.714.31 1.266.759 1.657.448.39 1.1.587 1.955.587.501 0 .958-.045 1.375-.136.415-.09.743-.186.982-.288l.272 1.683a3.23 3.23 0 0 1-.47.178c-.198.063-.425.12-.682.171-.256.051-.532.092-.828.128a7.69 7.69 0 0 1-.906.05c-.785 0-1.468-.116-2.048-.347-.58-.233-1.059-.555-1.434-.968a3.985 3.985 0 0 1-.836-1.462 5.937 5.937 0 0 1-.274-1.848Zm5.993-.92c0-.283-.04-.551-.12-.806a1.961 1.961 0 0 0-.35-.664 1.665 1.665 0 0 0-.564-.442 1.791 1.791 0 0 0-.793-.16c-.319 0-.598.058-.836.178a1.89 1.89 0 0 0-.606.467 2.137 2.137 0 0 0-.385.664 3.54 3.54 0 0 0-.187.766h3.84v-.002ZM43.554 86.448c-.011.499-.029 1.017-.051 1.555a13.324 13.324 0 0 1-.162 1.589 7.673 7.673 0 0 1-.4 1.496 4.384 4.384 0 0 1-.76 1.283c-.324.38-.73.697-1.212.952-.484.255-1.074.416-1.767.485l-.29-1.717c.58-.113 1.03-.296 1.349-.552.319-.255.564-.58.734-.977.136-.294.242-.629.316-1.002.073-.373.13-.767.17-1.182.04-.413.065-.836.076-1.267.011-.43.018-.85.018-1.257v-1.103h6.317v8.888h-2.066v-7.19h-2.272v-.001ZM58.337 84.749v8.888H56.29c0-.646.003-1.285.008-1.92a415.24 415.24 0 0 1 .035-3.188c.005-.401.008-.698.008-.891-.341.442-.694.928-1.06 1.461-.363.533-.725 1.066-1.084 1.598a56.46 56.46 0 0 0-1.853 2.94h-1.826V84.75h2.032c0 .657-.004 1.282-.008 1.877-.007.596-.008 1.136-.008 1.624 0 .489-.004.913-.008 1.275-.007.362-.008.64-.008.833.318-.487.649-.99.99-1.505.341-.515.686-1.019 1.033-1.512.348-.493.693-.96 1.034-1.402.341-.442.671-.839.99-1.19h1.773ZM64.91 90.34h-.41a4.4 4.4 0 0 1-.392-.018 20.29 20.29 0 0 0-1.008 1.675c-.308.573-.591 1.12-.854 1.64h-2.117a20.09 20.09 0 0 1 1.024-2.023c.375-.646.729-1.194 1.06-1.649-.559-.238-.965-.558-1.222-.96-.256-.402-.385-.876-.385-1.42 0-.498.095-.938.282-1.317.188-.38.452-.698.795-.953a3.645 3.645 0 0 1 1.23-.577 6.01 6.01 0 0 1 1.587-.197c.672 0 1.324.04 1.955.12.632.08 1.148.17 1.545.271v8.702h-2.066v-3.297h-1.023v.003Zm1.026-4.097a5.487 5.487 0 0 0-.58-.058 12.052 12.052 0 0 0-.803-.026c-1.262 0-1.895.464-1.895 1.394 0 .249.048.456.144.62.096.165.23.297.4.4.17.102.37.172.598.212.228.04.473.059.734.059h1.4v-2.6h.002Z"/>
	</symbol>
	<symbol fill="none" viewBox="0 0 22 27" id="icon-phone">
		<path stroke="currentColor" stroke-linecap="round" stroke-linejoin="round" d="M15.703 25.928C5.39 22.283-.727 12.625.968 2.658 1.208 1.245 2.806.413 4.33.77l5.284 1.241c.382.09.603.443.516.792a12.328 12.328 0 0 0-.296 4.432L7.01 8.72c.726 3.668 2.835 6.998 5.956 9.405l2.824-1.487a15.401 15.401 0 0 0 4.357 1.983c.376.105.6.457.494.803l-1.462 4.792c-.422 1.383-2.011 2.228-3.476 1.71Z"/>
	</symbol>
	<symbol fill="none" viewBox="0 0 31 30" id="icon-route">
		<path stroke="currentColor" d="m1.17 9.384 28.126-7.685-12.902 26.147-4.926-11.27-.057-.13-.117-.081L1.169 9.384Z"/>
	</symbol>
	<symbol fill="none" viewBox="0 0 13 13" id="icon-tg">
		<path fill="currentColor" fill-rule="evenodd" d="M13 6.5a6.5 6.5 0 1 1-13 0 6.5 6.5 0 0 1 13 0ZM6.733 4.799c-.632.263-1.896.807-3.79 1.632-.308.123-.47.242-.484.36-.025.197.223.275.56.381l.142.046c.332.107.778.234 1.01.239.211.004.446-.083.705-.26C6.646 6 7.561 5.396 7.618 5.383c.04-.01.097-.02.135.013.038.034.034.098.03.115-.025.105-.997 1.009-1.5 1.476a17.732 17.732 0 0 0-.444.424c-.308.298-.54.52.013.885.265.175.478.32.69.463.231.158.462.315.76.511.077.05.15.102.22.152.27.192.511.365.81.337.174-.016.353-.18.444-.666.216-1.151.64-3.646.737-4.673a1.146 1.146 0 0 0-.011-.256.274.274 0 0 0-.093-.176.427.427 0 0 0-.251-.076c-.245.004-.62.135-2.425.886Z" clip-rule="evenodd"/>
	</symbol>
	<symbol fill="none" viewBox="0 0 13 13" id="icon-vk">
		<path fill="currentColor" fill-rule="evenodd" d="M.914.914C0 1.828 0 3.298 0 6.24v.52c0 2.942 0 4.412.914 5.326C1.828 13 3.298 13 6.24 13h.52c2.942 0 4.412 0 5.326-.914C13 11.172 13 9.702 13 6.76v-.52c0-2.942 0-4.412-.914-5.326C11.172 0 9.702 0 6.76 0h-.52C3.298 0 1.828 0 .914.914Zm1.28 3.04c.07 3.38 1.76 5.411 4.723 5.411h.168V7.432c1.089.108 1.912.904 2.243 1.933h1.538c-.423-1.538-1.533-2.388-2.226-2.713.693-.401 1.668-1.376 1.9-2.698H9.144c-.303 1.073-1.202 2.048-2.058 2.14v-2.14H5.688v3.749c-.867-.217-1.961-1.268-2.01-3.749H2.194Z" clip-rule="evenodd"/>
	</symbol>
	<symbol fill="none" viewBox="0 0 13 13" id="icon-whatsapp">
		<path fill="currentColor" d="m0 13 .918-3.338A6.405 6.405 0 0 1 .054 6.44C.056 2.89 2.96 0 6.527 0c1.731 0 3.357.672 4.579 1.89A6.39 6.39 0 0 1 13 6.446c-.002 3.552-2.905 6.441-6.473 6.441a6.5 6.5 0 0 1-3.095-.784L0 13Zm3.59-2.062c.913.539 1.783.862 2.935.862 2.965 0 5.38-2.402 5.382-5.354.001-2.959-2.403-5.357-5.378-5.358-2.967 0-5.38 2.401-5.382 5.353 0 1.206.355 2.108.95 3.052l-.543 1.976 2.036-.531Zm6.198-2.96c-.04-.067-.148-.107-.31-.188-.162-.08-.957-.47-1.106-.524-.148-.053-.256-.08-.364.081-.108.161-.418.524-.512.631-.094.107-.189.121-.35.04-.162-.08-.684-.25-1.301-.799a4.849 4.849 0 0 1-.9-1.115c-.094-.16-.01-.248.07-.328.074-.072.162-.188.244-.282.082-.094.108-.16.163-.269.054-.107.027-.201-.014-.282-.04-.08-.364-.872-.498-1.195-.132-.313-.265-.271-.364-.276l-.31-.005a.594.594 0 0 0-.432.201c-.148.162-.566.55-.566 1.343 0 .792.58 1.558.66 1.665.082.107 1.14 1.733 2.763 2.43.386.166.687.265.922.34.388.122.74.105 1.019.063.31-.046.957-.389 1.092-.765.135-.376.135-.699.094-.766Z"/>
	</symbol>
</svg>
